<svg width="594" height="593" viewBox="0 0 594 593" fill="none" xmlns="http://www.w3.org/2000/svg">
<path d="M148.669 476.554C146.872 458.586 174.873 406.177 189.098 382.218C167.536 367.843 148.669 313.338 141.93 287.882C114.977 386.71 135.192 454.842 148.669 476.554Z" fill="#B3BBBB"/>
<path d="M281.188 350.775C214.703 327.416 175.621 442.865 164.391 503.51L234.02 586.615C327.457 609.975 425.686 563.406 463.121 537.201C375.075 497.67 359.052 411.42 362.047 373.236L281.188 350.775Z" fill="#B3BBBB"/>
<path d="M191.346 573.127C29.6264 373.232 156.906 173.323 247.499 117.17C172.03 66.8578 94.7631 81.2399 79.0413 92.4645C-111.878 326.064 90.2704 548.427 191.346 573.127Z" fill="#B3BBBB"/>
<path d="M274.447 130.655C172.948 161.719 158.399 311.84 200.326 364.249C331.498 193.546 443.653 242.211 483.335 287.881C488.725 311.241 455.633 315.583 438.413 314.835C438.413 339.991 412.957 358.259 400.229 364.249C330.151 443.311 475.848 442.113 557.456 431.631C640.112 287.881 563.445 147.126 514.78 94.7173C507.592 114.483 471.355 116.43 454.135 114.932C421.792 84.3854 371.779 79.7435 350.815 81.2409C390.346 140.538 316.375 138.891 274.447 130.655Z" fill="#B3BBBB"/>
<path d="M463.122 287.882C380.466 230.382 295.414 289.379 263.22 326.065C290.173 320.674 332.849 340.291 350.817 350.773C374.177 357.961 390.498 341.789 395.739 332.804C419.099 332.804 420.446 310.343 418.2 299.113C436.169 297.316 455.635 290.877 463.122 287.882Z" fill="#B3BBBB"/>
<path d="M546.226 454.095C481.539 468.47 417.45 445.86 395.738 433.88C404.722 469.818 456.382 508.75 481.089 523.724C499.058 521.927 533.498 477.305 546.226 454.095Z" fill="#B3BBBB"/>
<path d="M494.566 74.4986C339.585 -55.771 171.128 13.8582 108.237 65.518C158.55 40.3609 243.752 80.4923 276.694 103.703C350.366 134.25 346.323 107.446 335.093 90.226C320.718 56.0854 350.067 50.545 366.538 52.0424C467.163 113.136 495.314 91.719 494.566 74.4986Z" fill="#B3BBBB"/>
</svg>
